<?xml version="1.0" standalone="no"?>
<!DOCTYPE svg PUBLIC "-//W3C//DTD SVG 20010904//EN"
 "http://www.w3.org/TR/2001/REC-SVG-20010904/DTD/svg10.dtd">
<svg version="1.0" xmlns="http://www.w3.org/2000/svg"
 width="512.000000pt" height="512.000000pt" viewBox="0 0 512.000000 512.000000"
 preserveAspectRatio="xMidYMid meet">
<metadata>
Created by potrace 1.14, written by Peter Selinger 2001-2017
</metadata>
<g transform="translate(0.000000,512.000000) scale(0.100000,-0.100000)"
fill="#000000" stroke="none">
<path d="M1935 5079 c-22 -4 -51 -11 -65 -13 -113 -24 -281 -167 -338 -286
-38 -79 -62 -168 -62 -230 l0 -47 -37 -1 c-213 -8 -396 -126 -491 -317 -46
-92 -51 -114 -62 -265 0 -3 -15 -6 -32 -6 -54 -1 -121 -12 -164 -27 -335 -120
-483 -483 -325 -798 l39 -77 -82 -41 c-254 -128 -372 -407 -287 -682 34 -108
85 -173 326 -413 l227 -227 -69 -70 c-131 -134 -176 -235 -175 -388 2 -134 44
-252 131 -361 77 -96 682 -689 739 -724 186 -112 426 -110 602 7 25 17 118
102 206 189 l161 160 59 -12 c97 -18 182 -24 319 -25 120 0 267 10 297 20 7 2
31 7 52 10 l39 5 178 -175 c97 -96 183 -175 190 -175 7 0 20 -6 28 -14 9 -8
52 -27 96 -42 171 -57 355 -33 502 68 24 16 195 181 381 367 352 351 387 393
438 524 37 93 44 232 16 323 -29 93 -53 130 -150 228 l-83 83 226 227 c129
130 244 254 266 289 54 83 80 172 85 283 8 225 -111 426 -313 526 l-83 41 29
51 c115 201 96 458 -48 636 -46 57 -63 72 -135 120 -88 60 -164 85 -278 93
-21 2 -39 5 -42 8 -2 2 -7 33 -11 69 -30 285 -251 492 -547 512 l-38 2 -1 48
c-1 26 -2 51 -4 56 -1 4 -5 25 -9 47 -12 58 -69 173 -113 225 -107 130 -275
209 -443 210 -81 0 -198 -31 -273 -73 -36 -21 -106 -75 -154 -122 -48 -47 -90
-85 -93 -85 -3 0 -37 30 -75 68 -98 94 -144 128 -217 161 -103 47 -230 62
-333 40z m210 -323 c38 -18 114 -88 317 -291 298 -298 309 -314 303 -426 -8
-137 -109 -238 -245 -245 -114 -6 -137 11 -421 294 -137 136 -260 263 -275
283 -31 45 -51 120 -47 174 4 55 51 142 94 177 77 62 186 76 274 34z m1017 14
c100 -28 180 -138 180 -247 0 -69 -17 -113 -70 -185 -22 -29 -43 -68 -45 -86
-15 -98 69 -186 167 -175 27 3 59 18 94 44 71 54 116 72 184 72 108 0 208 -71
243 -172 31 -93 13 -187 -52 -262 -57 -65 -66 -151 -21 -208 56 -72 136 -82
214 -26 88 62 142 83 209 80 78 -4 127 -26 180 -80 52 -54 74 -113 71 -192 -4
-87 -33 -131 -182 -281 -88 -89 -137 -146 -145 -169 -34 -103 47 -213 155
-213 17 0 56 12 86 26 142 67 300 10 361 -129 29 -69 23 -166 -14 -229 -36
-61 -1224 -1242 -1317 -1310 -370 -269 -845 -364 -1270 -253 -101 26 -113 19
-335 -202 -228 -227 -263 -249 -371 -240 -43 3 -77 13 -106 30 -24 14 -188
171 -365 349 -352 353 -365 370 -366 477 -1 78 18 108 146 238 118 121 103
112 229 128 154 19 328 149 403 300 64 131 81 299 40 414 -8 24 -15 45 -15 46
0 2 29 13 64 25 121 40 233 130 301 240 32 52 75 164 75 193 0 11 23 13 118
11 184 -4 303 39 422 156 137 135 194 306 167 496 l-7 51 62 17 c155 43 276
138 356 278 51 91 77 250 59 368 -15 100 -84 228 -170 316 -29 29 -67 68 -85
87 l-33 34 73 72 c110 111 198 142 310 111z m-1612 -597 c37 -13 102 -72 367
-336 339 -338 370 -375 378 -466 18 -206 -197 -348 -382 -252 -21 11 -183 165
-360 343 -350 351 -363 367 -362 468 0 192 175 310 359 243z m-580 -590 c66
-29 564 -529 596 -598 81 -172 -47 -370 -237 -367 -103 1 -126 19 -413 305
-170 169 -271 278 -286 307 -34 65 -34 167 0 234 63 123 213 176 340 119z
m-288 -886 c40 -20 102 -76 254 -229 111 -112 210 -219 220 -238 28 -52 26
-181 -3 -236 -43 -81 -124 -132 -217 -139 -110 -7 -129 6 -364 238 -239 238
-262 270 -262 371 0 195 198 318 372 233z m3786 -1422 c9 -17 15 -51 15 -81
-2 -100 -20 -123 -377 -482 -184 -185 -349 -343 -371 -355 -55 -29 -173 -31
-230 -2 -43 21 -229 200 -222 213 3 4 38 23 79 42 40 19 75 38 76 43 2 4 8 7
13 7 13 0 144 85 214 139 87 67 132 109 408 384 l250 249 64 -64 c36 -34 72
-76 81 -93z"/>
<path d="M3690 3025 c-7 -8 -16 -13 -20 -10 -5 3 -11 1 -14 -4 -8 -12 41 -121
54 -121 14 0 13 13 -6 60 -19 46 -8 74 20 51 19 -16 32 4 16 24 -16 19 -34 19
-50 0z"/>
<path d="M3616 2992 c-3 -5 3 -30 12 -55 15 -42 15 -49 2 -57 -24 -16 -28 -13
-56 41 -16 32 -29 48 -35 42 -11 -11 30 -110 49 -118 7 -2 31 4 53 16 30 15
39 25 34 37 -34 93 -47 114 -59 94z"/>
<path d="M3453 2928 c-29 -14 -36 -38 -23 -74 24 -63 64 -75 109 -33 20 19 20
22 6 56 -27 65 -44 74 -92 51z m61 -50 c12 -29 12 -35 -2 -45 -23 -19 -30 -16
-47 18 -19 36 -14 59 15 59 13 0 25 -11 34 -32z"/>
<path d="M3180 2855 c0 -9 5 -15 11 -13 6 2 11 8 11 13 0 5 -5 11 -11 13 -6 2
-11 -4 -11 -13z"/>
<path d="M3282 2850 c-58 -35 -35 -85 31 -70 33 7 38 6 35 -8 -3 -13 -13 -16
-41 -15 -39 3 -47 -7 -22 -27 16 -14 50 -7 79 15 14 10 17 21 12 41 -7 25 -9
26 -52 20 -34 -4 -44 -2 -44 8 0 18 29 29 45 16 12 -10 25 -4 25 11 0 5 -8 13
-18 18 -14 7 -27 5 -50 -9z"/>
<path d="M3200 2808 c0 -7 12 -37 25 -67 17 -36 29 -51 36 -44 6 6 1 29 -16
66 -23 53 -45 74 -45 45z"/>
<path d="M3060 2757 c-29 -15 -37 -41 -19 -63 9 -11 23 -13 51 -9 30 5 38 4
38 -8 0 -18 -30 -31 -43 -18 -5 5 -16 7 -23 4 -11 -4 -12 -9 -3 -19 16 -20 52
-17 82 6 23 18 25 24 15 46 -11 23 -16 25 -55 19 -45 -7 -58 6 -25 24 13 7 22
7 30 -1 14 -14 33 -1 25 17 -6 18 -39 19 -73 2z"/>
<path d="M3804 2757 c-3 -8 -3 -30 -1 -50 5 -45 -3 -46 -37 -6 -18 21 -32 29
-43 25 -13 -5 -5 -17 36 -57 48 -48 64 -79 41 -79 -5 0 -10 -5 -10 -11 0 -20
34 -4 40 19 8 35 0 172 -11 172 -5 0 -12 -6 -15 -13z"/>
<path d="M3638 2734 c-8 -14 -3 -55 8 -62 5 -4 18 -26 29 -50 14 -33 23 -42
38 -40 25 4 35 28 12 28 -19 0 -53 72 -36 78 17 6 13 22 -5 22 -9 0 -22 7 -29
17 -7 9 -14 12 -17 7z"/>
<path d="M2943 2708 c-28 -14 -36 -34 -22 -59 9 -17 17 -19 50 -14 31 5 39 4
39 -8 0 -20 -29 -30 -45 -17 -10 8 -15 8 -21 -1 -13 -21 24 -39 58 -27 38 13
52 46 30 71 -13 14 -24 17 -55 11 -31 -5 -38 -3 -35 7 3 8 18 15 34 15 45 2
47 3 34 19 -14 17 -36 18 -67 3z"/>
<path d="M3572 2709 c2 -6 8 -10 13 -10 5 0 11 4 13 10 2 6 -4 11 -13 11 -9 0
-15 -5 -13 -11z"/>
<path d="M3900 2674 c0 -8 5 -12 10 -9 6 3 10 10 10 16 0 5 -4 9 -10 9 -5 0
-10 -7 -10 -16z"/>
<path d="M3596 2671 c-3 -5 1 -21 9 -37 7 -16 18 -41 24 -56 11 -28 31 -38 31
-16 0 20 -43 118 -51 118 -4 0 -10 -4 -13 -9z"/>
<path d="M2823 2658 c-31 -15 -36 -38 -18 -81 19 -46 40 -58 77 -45 45 16 52
40 25 90 -24 46 -46 55 -84 36z m41 -45 c-22 -16 -44 -17 -44 -2 0 21 33 39
48 26 11 -9 11 -13 -4 -24z m23 -50 c-16 -16 -47 -12 -47 6 0 5 12 14 28 19
32 11 42 -2 19 -25z"/>
<path d="M3513 2636 c-28 -13 -28 -13 2 -82 17 -39 29 -54 36 -47 6 6 3 25
-10 56 -18 42 -18 47 -4 59 13 10 17 10 20 1 3 -7 12 -13 20 -13 10 0 13 6 9
16 -3 9 -6 18 -6 20 0 8 -45 1 -67 -10z"/>
<path d="M2715 2610 c-39 -15 -48 -35 -34 -75 7 -20 21 -43 30 -51 15 -13 21
-13 52 -1 19 8 37 20 41 25 9 15 -4 42 -21 42 -9 0 -13 -6 -10 -14 6 -15 -11
-36 -30 -36 -12 0 -43 49 -43 69 0 15 40 24 55 11 18 -15 31 6 15 25 -14 17
-25 18 -55 5z"/>
<path d="M3310 2595 c0 -9 5 -15 11 -13 6 2 11 8 11 13 0 5 -5 11 -11 13 -6 2
-11 -4 -11 -13z"/>
<path d="M3414 2596 c-17 -8 -33 -20 -36 -27 -7 -19 28 -98 46 -105 20 -8 86
25 86 42 0 22 -29 87 -43 96 -15 10 -16 10 -53 -6z m56 -52 c13 -40 4 -58 -26
-52 -19 3 -39 51 -30 73 11 29 44 17 56 -21z"/>
<path d="M3870 2578 c-36 -17 -121 -54 -190 -83 -153 -64 -700 -299 -756 -325
-22 -10 -96 -42 -165 -70 -68 -29 -144 -61 -169 -73 -40 -17 -278 -119 -428
-182 -30 -13 -58 -27 -63 -32 -5 -5 14 -63 51 -149 l61 -140 192 82 c106 45
522 224 926 398 403 173 736 317 739 320 7 8 -111 279 -123 282 -6 1 -39 -12
-75 -28z"/>
<path d="M2594 2556 c-18 -8 -35 -19 -39 -25 -10 -17 25 -100 45 -106 42 -13
107 42 81 68 -8 8 -14 8 -23 -1 -7 -7 -8 -12 -4 -12 5 0 3 -7 -4 -15 -7 -8
-19 -15 -26 -15 -13 0 -44 49 -44 69 0 16 40 24 56 10 19 -15 31 -3 18 18 -14
23 -24 24 -60 9z"/>
<path d="M3336 2562 c-11 -17 32 -122 50 -122 19 0 18 5 -14 75 -19 40 -31 55
-36 47z"/>
<path d="M3247 2524 c-27 -15 -27 -15 -11 -52 9 -20 20 -47 25 -59 9 -25 29
-31 29 -9 0 7 -7 30 -15 49 -22 53 -20 60 16 53 25 -5 30 -3 27 12 -4 22 -36
25 -71 6z"/>
<path d="M2500 2516 c0 -2 9 -25 21 -51 17 -39 19 -49 8 -56 -26 -17 -39 -9
-61 36 -12 25 -27 44 -33 41 -13 -4 -10 -15 16 -71 23 -48 40 -55 75 -30 12 8
24 12 27 8 4 -3 9 1 12 10 8 21 -34 117 -51 117 -8 0 -14 -2 -14 -4z"/>
<path d="M3128 2474 c-30 -16 -31 -13 15 -116 28 -63 53 -79 42 -28 -4 17 -3
30 2 28 16 -4 51 13 57 28 3 8 -4 35 -16 59 -24 50 -48 56 -100 29z m75 -39
c15 -31 15 -36 1 -50 -23 -23 -33 -19 -51 21 -17 34 -17 36 2 50 26 20 29 18
48 -21z"/>
<path d="M2331 2439 c-20 -19 -21 -23 -8 -42 12 -18 22 -21 57 -19 32 3 41 1
38 -10 -3 -7 -19 -13 -39 -13 -24 0 -34 -5 -34 -15 0 -22 63 -16 87 8 17 16
18 23 8 42 -10 19 -17 21 -51 16 -30 -5 -39 -3 -39 8 0 19 29 29 45 16 9 -8
15 -8 20 0 21 33 -49 41 -84 9z"/>
<path d="M2969 2405 c-37 -20 -39 -34 -15 -85 19 -39 26 -45 50 -43 46 3 85
50 56 68 -6 3 -15 -6 -20 -20 -7 -19 -16 -26 -32 -23 -36 5 -30 22 13 40 37
16 39 19 28 40 -21 41 -38 46 -80 23z m51 -27 c0 -7 -11 -18 -25 -25 -22 -10
-25 -9 -25 6 0 10 3 21 7 24 11 12 43 8 43 -5z"/>
<path d="M2168 2374 l-27 -14 26 -58 c31 -68 31 -68 43 -56 5 5 2 26 -10 53
-22 49 -18 65 15 57 27 -7 39 3 24 21 -14 16 -36 15 -71 -3z"/>
<path d="M2843 2352 c-18 -9 -33 -20 -33 -24 0 -4 11 -33 25 -64 18 -40 29
-54 36 -47 7 7 5 23 -7 51 -18 47 -14 72 14 72 14 0 24 -14 36 -45 10 -25 24
-45 33 -45 17 0 12 23 -18 83 -21 41 -37 45 -86 19z"/>
<path d="M2120 2300 c22 -57 20 -70 -14 -70 -17 0 -25 10 -37 42 -15 42 -39
63 -39 35 0 -9 9 -36 20 -61 22 -52 39 -57 94 -28 l34 18 -23 55 c-13 30 -30
55 -39 57 -14 3 -14 -3 4 -48z"/>
<path d="M2760 2313 c-62 -18 -71 -38 -45 -98 18 -44 38 -52 81 -32 38 19 41
30 18 86 -16 41 -29 51 -54 44z m30 -58 c13 -39 7 -55 -19 -55 -30 0 -55 73
-28 83 26 11 36 6 47 -28z"/>
<path d="M1852 2287 c-6 -7 -10 -27 -10 -45 1 -44 -4 -46 -38 -17 -16 14 -38
25 -48 25 -14 0 -2 -16 42 -58 34 -31 62 -66 62 -76 0 -10 5 -16 13 -13 6 2
10 13 8 23 -2 10 -5 54 -5 97 -1 78 -5 88 -24 64z"/>
<path d="M1943 2278 c-32 -15 -34 -32 -12 -83 22 -50 39 -56 89 -30 35 18 36
26 10 83 -20 45 -41 52 -87 30z m63 -45 c15 -34 15 -38 -2 -50 -25 -19 -28
-17 -48 24 -17 35 -17 38 0 50 27 20 34 16 50 -24z"/>
<path d="M2553 2226 c-28 -13 -28 -11 3 -81 17 -39 28 -55 35 -48 7 7 4 24 -7
51 -20 52 -14 78 17 62 24 -13 34 -8 26 15 -7 17 -41 18 -74 1z"/>
<path d="M2475 2192 c-11 -2 -30 -13 -42 -24 -21 -20 -21 -20 -3 -61 26 -57
41 -65 84 -44 40 19 43 30 20 86 -17 42 -27 50 -59 43z m25 -35 c0 -8 -11 -19
-25 -25 -22 -10 -25 -9 -25 7 0 19 12 29 38 30 6 1 12 -5 12 -12z m21 -49 c-4
-13 -18 -24 -30 -26 -28 -4 -28 22 2 36 33 16 37 14 28 -10z"/>
<path d="M2270 2161 c0 -14 61 -155 71 -166 7 -6 12 -6 17 0 4 6 16 12 27 13
47 9 56 38 28 96 -20 43 -36 50 -72 31 -27 -13 -29 -13 -39 10 -11 24 -32 34
-32 16z m121 -78 c10 -32 10 -38 -7 -50 -16 -12 -21 -11 -32 4 -21 29 -26 64
-11 74 25 16 37 9 50 -28z"/>
<path d="M2233 2087 c-13 -5 -23 -14 -23 -19 0 -5 -4 -7 -9 -3 -6 3 -27 -2
-49 -12 l-39 -16 24 -61 c30 -72 26 -67 41 -57 10 6 8 19 -9 55 -17 40 -19 50
-8 57 22 14 32 6 48 -39 8 -23 21 -42 28 -42 17 0 16 9 -3 55 -8 21 -13 44
-10 51 11 28 33 13 54 -38 16 -37 25 -49 33 -41 8 8 4 25 -11 61 -24 56 -35
64 -67 49z"/>
<path d="M2082 2021 c-11 -7 -10 -16 8 -50 17 -33 19 -46 9 -57 -20 -25 -40
-15 -60 31 -19 43 -29 52 -42 39 -9 -9 46 -114 60 -114 21 0 82 34 83 46 0 6
-10 34 -22 62 -17 38 -27 49 -36 43z"/>
<path d="M1913 1952 c-39 -20 -39 -25 -10 -90 15 -36 26 -49 35 -43 10 6 8 17
-7 51 -14 32 -17 48 -9 57 19 24 39 13 59 -32 11 -25 26 -45 34 -45 13 0 12 6
-2 43 -18 47 -41 77 -57 76 -6 0 -26 -8 -43 -17z"/>
</g>
</svg>
